<svg xmlns="http://www.w3.org/2000/svg" xmlns:xlink="http://www.w3.org/1999/xlink" width="500" zoomAndPan="magnify" viewBox="0 0 375 374.999991" height="500" preserveAspectRatio="xMidYMid meet" version="1.0"><defs><g/><clipPath id="8e5ccce95e"><path d="M 41.886719 33.203125 L 333.113281 33.203125 L 333.113281 338 L 41.886719 338 Z M 41.886719 33.203125 " clip-rule="nonzero"/></clipPath><clipPath id="9cb779f90e"><path d="M 139.015625 40.339844 C 153.898438 36.03125 170.917969 33.203125 187.578125 33.203125 C 204.238281 33.203125 220.269531 35.625 235.042969 39.9375 C 235.355469 40.070312 235.671875 40.070312 235.984375 40.207031 C 291.464844 57.449219 332.328125 102.976562 333.113281 156.1875 L 333.113281 337.5 L 41.886719 337.5 L 41.886719 156.320312 C 42.671875 102.710938 82.90625 57.179688 139.015625 40.339844 Z M 139.015625 40.339844 " clip-rule="nonzero"/></clipPath><clipPath id="6da736f3cc"><path d="M 0.886719 0.203125 L 292.113281 0.203125 L 292.113281 304 L 0.886719 304 Z M 0.886719 0.203125 " clip-rule="nonzero"/></clipPath><clipPath id="83bf434c45"><path d="M 98.015625 7.339844 C 112.898438 3.03125 129.917969 0.203125 146.578125 0.203125 C 163.238281 0.203125 179.269531 2.625 194.042969 6.9375 C 194.355469 7.070312 194.671875 7.070312 194.984375 7.207031 C 250.464844 24.449219 291.328125 69.976562 292.113281 123.1875 L 292.113281 304.5 L 0.886719 304.5 L 0.886719 123.320312 C 1.671875 69.710938 41.90625 24.179688 98.015625 7.339844 Z M 98.015625 7.339844 " clip-rule="nonzero"/></clipPath><clipPath id="3172849d1d"><rect x="0" width="293" y="0" height="305"/></clipPath><clipPath id="d9566faade"><path d="M 52.078125 19.9375 L 322.828125 19.9375 L 322.828125 305.6875 L 52.078125 305.6875 Z M 52.078125 19.9375 " clip-rule="nonzero"/></clipPath><clipPath id="fd80871409"><path d="M 114 192 L 166 192 L 166 286.6875 L 114 286.6875 Z M 114 192 " clip-rule="nonzero"/></clipPath><clipPath id="da7490b623"><path d="M 149 192 L 202 192 L 202 286.6875 L 149 286.6875 Z M 149 192 " clip-rule="nonzero"/></clipPath><clipPath id="f3a81fded0"><path d="M 230 165 L 270.828125 165 L 270.828125 222 L 230 222 Z M 230 165 " clip-rule="nonzero"/></clipPath><clipPath id="6feb2665e9"><rect x="0" width="271" y="0" height="287"/></clipPath><clipPath id="06d8aef046"><path d="M 0 284.082031 L 375 284.082031 L 375 375 L 0 375 Z M 0 284.082031 " clip-rule="nonzero"/></clipPath><clipPath id="0eb0cd4de4"><path d="M 0 0.0820312 L 375 0.0820312 L 375 91 L 0 91 Z M 0 0.0820312 " clip-rule="nonzero"/></clipPath><clipPath id="107ec1c5e7"><rect x="0" width="375" y="0" height="91"/></clipPath></defs><rect x="-37.5" width="450" fill="#ffffff" y="-37.499999" height="449.999989" fill-opacity="1"/><rect x="-37.5" width="450" fill="#f2cc8f" y="-37.499999" height="449.999989" fill-opacity="1"/><g clip-path="url(#8e5ccce95e)"><g clip-path="url(#9cb779f90e)"><g transform="matrix(1, 0, 0, 1, 41, 33)"><g clip-path="url(#3172849d1d)"><g clip-path="url(#6da736f3cc)"><g clip-path="url(#83bf434c45)"><path fill="#3d405b" d="M 0.886719 0.203125 L 292.113281 0.203125 L 292.113281 303.945312 L 0.886719 303.945312 Z M 0.886719 0.203125 " fill-opacity="1" fill-rule="nonzero"/></g></g></g></g></g></g><g clip-path="url(#d9566faade)"><g transform="matrix(1, 0, 0, 1, 52, 19)"><g clip-path="url(#6feb2665e9)"><path fill="#585875" d="M 116.75 168.871094 L 93.5 177.175781 C 92.835938 177.414062 92.152344 177.601562 91.457031 177.738281 C 90.765625 177.875 90.0625 177.960938 89.355469 177.996094 C 88.648438 178.027344 87.941406 178.007812 87.238281 177.9375 C 86.535156 177.867188 85.839844 177.742188 85.152344 177.570312 C 84.464844 177.394531 83.796875 177.167969 83.144531 176.894531 C 82.492188 176.621094 81.863281 176.300781 81.257812 175.933594 C 80.652344 175.566406 80.078125 175.15625 79.53125 174.703125 C 78.988281 174.25 78.480469 173.761719 78.007812 173.234375 L 71.101562 165.5 L 76.789062 160.027344 C 76.976562 159.84375 77.183594 159.679688 77.40625 159.539062 C 77.625 159.394531 77.859375 159.277344 78.105469 159.179688 C 78.351562 159.082031 78.601562 159.011719 78.859375 158.964844 C 79.121094 158.917969 79.382812 158.898438 79.644531 158.902344 C 79.910156 158.90625 80.167969 158.9375 80.425781 158.992188 C 80.683594 159.046875 80.933594 159.128906 81.175781 159.234375 C 81.417969 159.339844 81.644531 159.464844 81.863281 159.617188 C 82.078125 159.765625 82.277344 159.933594 82.460938 160.125 L 85.382812 163.140625 C 85.855469 163.628906 86.386719 164.03125 86.988281 164.347656 C 87.585938 164.667969 88.21875 164.886719 88.882812 165.003906 C 89.550781 165.125 90.21875 165.136719 90.890625 165.046875 C 91.5625 164.953125 92.203125 164.761719 92.8125 164.46875 L 109.414062 156.496094 Z M 116.75 168.871094 " fill-opacity="1" fill-rule="nonzero"/><path fill="#a1a8ce" d="M 165.332031 153.636719 L 148.613281 153.636719 L 148.613281 188.589844 L 165.332031 188.589844 Z M 165.332031 153.636719 " fill-opacity="1" fill-rule="nonzero"/><g clip-path="url(#fd80871409)"><path fill="#585875" d="M 114.015625 286.472656 L 151.09375 192.277344 L 165.847656 198.085938 L 133.144531 281.171875 C 132.835938 281.953125 132.417969 282.671875 131.894531 283.328125 C 131.371094 283.980469 130.761719 284.546875 130.066406 285.019531 C 129.375 285.492188 128.625 285.851562 127.824219 286.097656 C 127.023438 286.347656 126.199219 286.46875 125.359375 286.46875 Z M 114.015625 286.472656 " fill-opacity="1" fill-rule="nonzero"/></g><g clip-path="url(#da7490b623)"><path fill="#585875" d="M 201.324219 286.472656 L 164.246094 192.277344 L 149.492188 198.085938 L 182.195312 281.171875 C 182.503906 281.953125 182.917969 282.671875 183.445312 283.328125 C 183.96875 283.980469 184.578125 284.546875 185.269531 285.019531 C 185.964844 285.492188 186.710938 285.851562 187.515625 286.097656 C 188.316406 286.347656 189.136719 286.46875 189.976562 286.46875 Z M 201.324219 286.472656 " fill-opacity="1" fill-rule="nonzero"/></g><path fill="#a1a8ce" d="M 179.144531 184.351562 L 134.800781 184.351562 L 134.800781 193.429688 C 134.800781 193.875 134.84375 194.316406 134.929688 194.753906 C 135.015625 195.1875 135.144531 195.613281 135.316406 196.023438 C 135.488281 196.433594 135.695312 196.824219 135.941406 197.195312 C 136.191406 197.566406 136.472656 197.90625 136.785156 198.222656 C 137.101562 198.539062 137.441406 198.816406 137.8125 199.066406 C 138.183594 199.3125 138.574219 199.523438 138.984375 199.691406 C 139.394531 199.863281 139.820312 199.992188 140.253906 200.078125 C 140.691406 200.164062 141.132812 200.207031 141.578125 200.207031 L 172.367188 200.207031 C 172.8125 200.207031 173.253906 200.164062 173.691406 200.078125 C 174.125 199.992188 174.550781 199.863281 174.960938 199.691406 C 175.371094 199.523438 175.761719 199.3125 176.132812 199.066406 C 176.503906 198.816406 176.847656 198.539062 177.160156 198.222656 C 177.476562 197.90625 177.757812 197.566406 178.003906 197.195312 C 178.25 196.824219 178.460938 196.433594 178.628906 196.023438 C 178.800781 195.613281 178.929688 195.1875 179.015625 194.753906 C 179.101562 194.316406 179.144531 193.875 179.144531 193.429688 Z M 179.144531 184.351562 " fill-opacity="1" fill-rule="nonzero"/><path fill="#a1a8ce" d="M 137.339844 153.539062 L 169.351562 142.796875 C 169.65625 143.347656 169.933594 143.910156 170.175781 144.488281 C 170.421875 145.070312 170.632812 145.660156 170.808594 146.261719 C 170.988281 146.867188 171.132812 147.476562 171.246094 148.09375 C 171.359375 148.714844 171.4375 149.335938 171.480469 149.964844 C 171.523438 150.589844 171.53125 151.21875 171.507812 151.84375 C 171.480469 152.472656 171.421875 153.097656 171.328125 153.71875 C 171.234375 154.339844 171.105469 154.957031 170.945312 155.5625 C 170.78125 156.171875 170.585938 156.769531 170.359375 157.355469 C 170.132812 157.941406 169.875 158.511719 169.585938 159.070312 C 169.296875 159.628906 168.976562 160.167969 168.628906 160.691406 C 168.277344 161.210938 167.902344 161.714844 167.496094 162.195312 C 167.09375 162.675781 166.664062 163.136719 166.207031 163.570312 C 165.753906 164.003906 165.277344 164.410156 164.777344 164.792969 C 164.277344 165.175781 163.761719 165.527344 163.222656 165.851562 C 162.683594 166.179688 162.128906 166.472656 161.558594 166.738281 C 160.988281 167 160.40625 167.230469 159.808594 167.433594 C 159.214844 167.632812 158.609375 167.800781 157.996094 167.933594 C 157.378906 168.066406 156.761719 168.164062 156.136719 168.230469 C 155.511719 168.296875 154.882812 168.328125 154.253906 168.324219 C 153.625 168.320312 153 168.28125 152.375 168.210938 C 151.75 168.140625 151.132812 168.03125 150.519531 167.894531 C 149.90625 167.753906 149.304688 167.578125 148.710938 167.375 C 148.117188 167.167969 147.535156 166.929688 146.96875 166.660156 C 146.402344 166.386719 145.847656 166.089844 145.316406 165.757812 C 144.78125 165.425781 144.265625 165.070312 143.769531 164.679688 C 143.273438 164.292969 142.800781 163.882812 142.351562 163.441406 C 141.902344 163.003906 141.476562 162.539062 141.078125 162.054688 C 140.679688 161.570312 140.308594 161.0625 139.964844 160.539062 C 139.621094 160.011719 139.308594 159.46875 139.023438 158.90625 C 138.738281 158.347656 138.488281 157.769531 138.265625 157.183594 C 138.046875 156.59375 137.859375 155.996094 137.703125 155.386719 C 137.546875 154.777344 137.425781 154.160156 137.339844 153.539062 Z M 137.339844 153.539062 " fill-opacity="1" fill-rule="nonzero"/><path fill="#a1a8ce" d="M 222.855469 124.546875 C 221.554688 119.324219 219.71875 114.300781 217.34375 109.476562 C 214.96875 104.648438 212.105469 100.128906 208.761719 95.917969 C 208.511719 95.601562 208.242188 95.308594 207.941406 95.039062 C 207.640625 94.773438 207.320312 94.53125 206.976562 94.320312 C 206.636719 94.109375 206.277344 93.933594 205.902344 93.785156 C 205.527344 93.640625 205.144531 93.527344 204.75 93.449219 C 204.355469 93.371094 203.957031 93.328125 203.554688 93.320312 C 203.152344 93.316406 202.753906 93.34375 202.359375 93.410156 C 201.960938 93.472656 201.574219 93.574219 201.195312 93.707031 C 200.816406 93.839844 200.449219 94.007812 200.101562 94.207031 L 179.289062 106.058594 C 179.289062 106.058594 172.394531 117.433594 177.433594 129.160156 C 182.472656 140.886719 195.109375 140.886719 195.109375 140.886719 L 218.570312 132.507812 C 218.960938 132.367188 219.335938 132.195312 219.691406 131.984375 C 220.050781 131.777344 220.382812 131.539062 220.699219 131.265625 C 221.011719 130.996094 221.296875 130.703125 221.558594 130.378906 C 221.816406 130.054688 222.042969 129.710938 222.238281 129.347656 C 222.433594 128.984375 222.597656 128.605469 222.722656 128.210938 C 222.847656 127.816406 222.9375 127.414062 222.992188 127.003906 C 223.042969 126.59375 223.058594 126.183594 223.035156 125.769531 C 223.011719 125.355469 222.953125 124.949219 222.855469 124.546875 Z M 222.855469 124.546875 " fill-opacity="1" fill-rule="nonzero"/><path fill="#d0d9ef" d="M 101.824219 162.40625 C 101.535156 161.738281 101.308594 161.050781 101.144531 160.34375 C 100.980469 159.632812 100.882812 158.914062 100.851562 158.1875 C 100.816406 157.460938 100.851562 156.734375 100.953125 156.015625 C 101.054688 155.292969 101.21875 154.589844 101.449219 153.898438 C 101.679688 153.207031 101.96875 152.542969 102.320312 151.90625 C 102.671875 151.269531 103.078125 150.667969 103.542969 150.105469 C 104.003906 149.542969 104.511719 149.027344 105.070312 148.558594 C 105.625 148.089844 106.21875 147.671875 106.851562 147.3125 L 179.289062 106.058594 C 179.925781 114.6875 182.808594 130.894531 195.109375 140.886719 L 116.75 168.871094 C 116.042969 169.125 115.324219 169.308594 114.582031 169.425781 C 113.84375 169.539062 113.101562 169.585938 112.351562 169.5625 C 111.605469 169.535156 110.867188 169.441406 110.136719 169.277344 C 109.40625 169.113281 108.699219 168.882812 108.011719 168.585938 C 107.324219 168.289062 106.671875 167.929688 106.054688 167.507812 C 105.433594 167.089844 104.859375 166.613281 104.332031 166.085938 C 103.800781 165.554688 103.328125 164.984375 102.90625 164.363281 C 102.484375 163.746094 102.125 163.09375 101.824219 162.40625 Z M 101.824219 162.40625 " fill-opacity="1" fill-rule="nonzero"/><path fill="#969fe0" d="M 100.410156 71.28125 C 100.636719 70.203125 100.820312 69.117188 100.957031 68.023438 C 101.09375 66.933594 101.183594 65.835938 101.230469 64.734375 C 101.277344 63.632812 101.277344 62.53125 101.230469 61.433594 C 101.183594 60.332031 101.09375 59.234375 100.957031 58.140625 C 100.820312 57.046875 100.636719 55.964844 100.410156 54.886719 C 100.183594 53.808594 99.914062 52.738281 99.597656 51.683594 C 99.28125 50.628906 98.921875 49.589844 98.519531 48.5625 C 98.121094 47.535156 97.675781 46.53125 97.191406 45.539062 C 96.703125 44.550781 96.179688 43.585938 95.613281 42.640625 C 95.046875 41.695312 94.441406 40.773438 93.800781 39.878906 C 93.160156 38.984375 92.480469 38.117188 91.765625 37.277344 C 91.050781 36.441406 90.304688 35.632812 89.523438 34.855469 C 88.742188 34.078125 87.929688 33.335938 87.085938 32.625 C 86.242188 31.917969 85.371094 31.246094 84.472656 30.609375 C 83.574219 29.96875 82.652344 29.371094 81.703125 28.8125 C 80.753906 28.25 79.78125 27.730469 78.792969 27.253906 C 77.800781 26.773438 76.789062 26.335938 75.761719 25.941406 C 74.734375 25.542969 73.691406 25.191406 72.632812 24.882812 C 71.574219 24.574219 70.507812 24.308594 69.429688 24.089844 C 68.347656 23.867188 67.261719 23.691406 66.167969 23.5625 C 65.074219 23.433594 63.976562 23.347656 62.875 23.308594 C 61.773438 23.269531 60.675781 23.277344 59.574219 23.328125 C 58.472656 23.382812 57.378906 23.480469 56.285156 23.621094 C 55.191406 23.765625 54.109375 23.953125 53.03125 24.1875 C 51.953125 24.421875 50.890625 24.699219 49.835938 25.019531 C 48.78125 25.34375 47.746094 25.707031 46.722656 26.117188 C 45.699219 26.523438 44.695312 26.976562 43.707031 27.464844 C 42.722656 27.957031 41.757812 28.488281 40.816406 29.0625 C 39.875 29.632812 38.957031 30.242188 38.066406 30.890625 C 37.175781 31.539062 36.3125 32.222656 35.480469 32.941406 C 34.644531 33.660156 33.839844 34.414062 33.070312 35.199219 C 32.296875 35.984375 31.558594 36.800781 30.855469 37.648438 C 30.855469 37.648438 14.199219 66.875 46.191406 86.46875 C 78.179688 106.058594 100.410156 71.28125 100.410156 71.28125 Z M 100.410156 71.28125 " fill-opacity="1" fill-rule="nonzero"/><path fill="#6774b7" d="M 100.402344 71.28125 C 100.25 72.015625 100.074219 72.746094 99.875 73.472656 C 99.679688 74.199219 99.464844 74.917969 99.226562 75.632812 C 98.988281 76.347656 98.730469 77.054688 98.457031 77.753906 C 98.179688 78.453125 97.882812 79.140625 97.566406 79.824219 C 97.25 80.507812 96.914062 81.179688 96.558594 81.84375 C 96.203125 82.507812 95.832031 83.160156 95.441406 83.800781 C 95.046875 84.441406 94.640625 85.074219 94.210938 85.691406 C 93.785156 86.3125 93.339844 86.917969 92.878906 87.511719 C 92.417969 88.105469 91.9375 88.683594 91.445312 89.25 C 90.949219 89.816406 90.441406 90.371094 89.914062 90.90625 C 89.386719 91.445312 88.847656 91.96875 88.292969 92.476562 C 87.738281 92.980469 87.167969 93.472656 86.582031 93.949219 C 86 94.421875 85.40625 94.878906 84.796875 95.320312 C 84.1875 95.761719 83.566406 96.183594 82.933594 96.589844 C 82.296875 96.996094 81.652344 97.382812 81 97.753906 C 80.34375 98.121094 79.679688 98.472656 79.003906 98.804688 C 78.328125 99.136719 77.644531 99.449219 76.953125 99.742188 C 76.257812 100.035156 75.558594 100.304688 74.851562 100.558594 C 74.144531 100.8125 73.429688 101.046875 72.707031 101.257812 C 71.984375 101.46875 71.257812 101.660156 70.527344 101.832031 C 69.792969 102.003906 69.058594 102.15625 68.316406 102.285156 C 67.574219 102.414062 66.832031 102.523438 66.085938 102.609375 C 65.335938 102.695312 64.589844 102.761719 63.839844 102.808594 C 63.085938 102.851562 62.335938 102.875 61.585938 102.878906 C 60.832031 102.882812 60.082031 102.863281 59.328125 102.820312 C 58.578125 102.78125 57.828125 102.71875 57.082031 102.636719 C 56.335938 102.554688 55.589844 102.449219 54.847656 102.324219 C 54.105469 102.199219 53.371094 102.054688 52.636719 101.886719 C 51.902344 101.71875 51.175781 101.53125 50.453125 101.324219 C 49.730469 101.117188 49.011719 100.886719 48.304688 100.640625 C 47.59375 100.390625 46.890625 100.121094 46.199219 99.835938 C 45.503906 99.546875 44.816406 99.238281 44.140625 98.910156 C 43.464844 98.582031 42.796875 98.238281 42.140625 97.871094 C 41.480469 97.507812 40.835938 97.121094 40.199219 96.71875 C 39.5625 96.320312 38.941406 95.898438 38.328125 95.460938 C 37.714844 95.023438 37.117188 94.570312 36.53125 94.097656 C 35.945312 93.628906 35.371094 93.140625 34.8125 92.636719 C 34.253906 92.132812 33.710938 91.613281 33.183594 91.078125 C 32.652344 90.546875 32.140625 89.996094 31.640625 89.433594 C 31.144531 88.871094 30.664062 88.292969 30.199219 87.699219 C 29.734375 87.109375 29.285156 86.507812 28.851562 85.890625 C 28.421875 85.273438 28.007812 84.644531 27.613281 84.007812 C 27.21875 83.367188 26.839844 82.714844 26.484375 82.054688 C 26.125 81.394531 25.785156 80.722656 25.464844 80.042969 C 25.144531 79.363281 24.84375 78.675781 24.5625 77.976562 C 24.28125 77.277344 24.019531 76.574219 23.777344 75.863281 C 23.535156 75.148438 23.316406 74.429688 23.113281 73.707031 C 22.914062 72.980469 22.734375 72.253906 22.574219 71.515625 C 22.414062 70.78125 22.277344 70.042969 22.160156 69.300781 C 22.042969 68.558594 21.945312 67.8125 21.871094 67.0625 C 21.792969 66.316406 21.742188 65.566406 21.707031 64.8125 C 21.675781 64.0625 21.664062 63.3125 21.675781 62.558594 C 21.683594 61.808594 21.714844 61.054688 21.769531 60.304688 C 21.820312 59.554688 21.894531 58.808594 21.988281 58.0625 C 22.082031 57.316406 22.199219 56.574219 22.335938 55.832031 C 22.472656 55.09375 22.632812 54.359375 22.808594 53.628906 C 22.988281 52.898438 23.1875 52.171875 23.40625 51.453125 C 23.628906 50.734375 23.867188 50.023438 24.128906 49.316406 C 24.386719 48.613281 24.667969 47.914062 24.96875 47.222656 C 25.269531 46.535156 25.585938 45.855469 25.925781 45.183594 C 26.261719 44.511719 26.621094 43.847656 26.996094 43.199219 C 27.371094 42.546875 27.765625 41.90625 28.179688 41.277344 C 28.589844 40.648438 29.019531 40.03125 29.46875 39.425781 C 29.914062 38.820312 30.378906 38.230469 30.859375 37.652344 C 30.632812 38.730469 30.449219 39.816406 30.3125 40.90625 C 30.175781 42 30.085938 43.097656 30.039062 44.199219 C 29.992188 45.296875 29.992188 46.398438 30.039062 47.5 C 30.085938 48.601562 30.175781 49.695312 30.3125 50.789062 C 30.449219 51.882812 30.632812 52.96875 30.859375 54.046875 C 31.085938 55.125 31.355469 56.191406 31.671875 57.246094 C 31.988281 58.300781 32.34375 59.34375 32.746094 60.367188 C 33.148438 61.394531 33.59375 62.402344 34.078125 63.390625 C 34.5625 64.378906 35.089844 65.34375 35.65625 66.289062 C 36.222656 67.234375 36.824219 68.15625 37.46875 69.050781 C 38.109375 69.945312 38.789062 70.8125 39.5 71.652344 C 40.214844 72.488281 40.964844 73.296875 41.746094 74.074219 C 42.527344 74.851562 43.335938 75.59375 44.179688 76.300781 C 45.023438 77.011719 45.894531 77.683594 46.792969 78.320312 C 47.691406 78.957031 48.617188 79.554688 49.5625 80.117188 C 50.511719 80.675781 51.484375 81.195312 52.472656 81.675781 C 53.464844 82.15625 54.476562 82.59375 55.503906 82.988281 C 56.53125 83.382812 57.574219 83.738281 58.632812 84.046875 C 59.6875 84.355469 60.757812 84.621094 61.835938 84.839844 C 62.914062 85.058594 64 85.234375 65.09375 85.367188 C 66.191406 85.496094 67.285156 85.582031 68.386719 85.621094 C 69.488281 85.660156 70.589844 85.652344 71.6875 85.597656 C 72.789062 85.546875 73.886719 85.449219 74.976562 85.304688 C 76.070312 85.160156 77.152344 84.972656 78.230469 84.738281 C 79.308594 84.507812 80.371094 84.230469 81.425781 83.90625 C 82.480469 83.585938 83.515625 83.21875 84.539062 82.8125 C 85.5625 82.402344 86.566406 81.953125 87.554688 81.460938 C 88.539062 80.972656 89.503906 80.441406 90.445312 79.867188 C 91.386719 79.296875 92.300781 78.6875 93.195312 78.039062 C 94.085938 77.390625 94.945312 76.707031 95.78125 75.988281 C 96.617188 75.269531 97.417969 74.515625 98.191406 73.730469 C 98.960938 72.945312 99.699219 72.128906 100.402344 71.28125 Z M 100.402344 71.28125 " fill-opacity="1" fill-rule="nonzero"/><path fill="#ffb973" d="M 264.304688 48.367188 C 264.71875 47.074219 265.03125 45.757812 265.242188 44.414062 C 265.453125 43.070312 265.558594 41.71875 265.558594 40.359375 C 265.5625 39 265.457031 37.648438 265.25 36.308594 C 265.042969 34.964844 264.734375 33.644531 264.320312 32.347656 C 263.90625 31.054688 263.398438 29.796875 262.792969 28.582031 C 262.183594 27.367188 261.488281 26.203125 260.699219 25.097656 C 259.914062 23.988281 259.046875 22.945312 258.097656 21.972656 C 257.148438 21 256.132812 20.105469 255.046875 19.289062 C 253.957031 18.472656 252.816406 17.746094 251.617188 17.105469 C 250.417969 16.464844 249.175781 15.921875 247.890625 15.476562 C 246.605469 15.03125 245.296875 14.683594 243.960938 14.441406 C 242.621094 14.199219 241.273438 14.058594 239.914062 14.023438 C 238.558594 13.988281 237.203125 14.058594 235.855469 14.234375 C 234.507812 14.410156 233.179688 14.6875 231.875 15.066406 C 230.570312 15.449219 229.304688 15.925781 228.074219 16.503906 C 226.84375 17.082031 225.664062 17.75 224.535156 18.507812 C 224.535156 18.507812 210.160156 33.429688 229.199219 50.992188 C 248.234375 68.550781 264.304688 48.367188 264.304688 48.367188 Z M 264.304688 48.367188 " fill-opacity="1" fill-rule="nonzero"/><path fill="#e8864f" d="M 249.460938 52.960938 C 252.109375 52.964844 254.699219 52.574219 257.230469 51.789062 C 259.757812 51.007812 262.117188 49.867188 264.300781 48.367188 C 264.140625 48.863281 263.964844 49.355469 263.777344 49.839844 C 263.589844 50.328125 263.386719 50.804688 263.167969 51.28125 C 262.953125 51.753906 262.722656 52.222656 262.476562 52.679688 C 262.230469 53.140625 261.972656 53.59375 261.703125 54.039062 C 261.429688 54.484375 261.144531 54.921875 260.847656 55.347656 C 260.550781 55.777344 260.242188 56.195312 259.917969 56.605469 C 259.59375 57.015625 259.261719 57.414062 258.914062 57.804688 C 258.570312 58.191406 258.210938 58.570312 257.84375 58.941406 C 257.472656 59.308594 257.09375 59.664062 256.703125 60.011719 C 256.3125 60.355469 255.914062 60.691406 255.503906 61.011719 C 255.09375 61.335938 254.675781 61.644531 254.246094 61.941406 C 253.820312 62.238281 253.382812 62.523438 252.9375 62.792969 C 252.492188 63.066406 252.039062 63.324219 251.578125 63.566406 C 251.117188 63.8125 250.652344 64.042969 250.175781 64.257812 C 249.703125 64.476562 249.222656 64.679688 248.738281 64.867188 C 248.25 65.054688 247.757812 65.226562 247.261719 65.386719 C 246.765625 65.542969 246.265625 65.6875 245.761719 65.816406 C 245.253906 65.945312 244.746094 66.058594 244.234375 66.160156 C 243.722656 66.257812 243.207031 66.339844 242.691406 66.410156 C 242.175781 66.476562 241.65625 66.53125 241.136719 66.566406 C 240.617188 66.605469 240.097656 66.628906 239.574219 66.632812 C 239.054688 66.640625 238.535156 66.632812 238.011719 66.605469 C 237.492188 66.582031 236.972656 66.542969 236.453125 66.488281 C 235.9375 66.433594 235.417969 66.363281 234.90625 66.273438 C 234.390625 66.1875 233.878906 66.089844 233.371094 65.972656 C 232.863281 65.855469 232.359375 65.722656 231.859375 65.578125 C 231.359375 65.429688 230.863281 65.269531 230.375 65.09375 C 229.882812 64.917969 229.398438 64.726562 228.917969 64.523438 C 228.4375 64.320312 227.964844 64.101562 227.5 63.867188 C 227.035156 63.632812 226.574219 63.386719 226.121094 63.128906 C 225.671875 62.867188 225.226562 62.59375 224.792969 62.308594 C 224.355469 62.023438 223.929688 61.722656 223.511719 61.410156 C 223.09375 61.097656 222.6875 60.777344 222.289062 60.4375 C 221.890625 60.101562 221.5 59.753906 221.121094 59.398438 C 220.746094 59.039062 220.378906 58.667969 220.023438 58.285156 C 219.667969 57.90625 219.324219 57.515625 218.988281 57.113281 C 218.65625 56.710938 218.335938 56.300781 218.027344 55.878906 C 217.71875 55.460938 217.425781 55.03125 217.140625 54.59375 C 216.859375 54.15625 216.589844 53.710938 216.335938 53.253906 C 216.078125 52.800781 215.835938 52.339844 215.605469 51.871094 C 215.378906 51.402344 215.164062 50.929688 214.964844 50.449219 C 214.761719 49.964844 214.578125 49.480469 214.40625 48.988281 C 214.234375 48.496094 214.078125 48 213.933594 47.496094 C 213.792969 46.996094 213.664062 46.488281 213.554688 45.980469 C 213.441406 45.472656 213.34375 44.960938 213.261719 44.445312 C 213.179688 43.929688 213.113281 43.414062 213.0625 42.894531 C 213.011719 42.375 212.976562 41.855469 212.957031 41.335938 C 212.9375 40.8125 212.933594 40.292969 212.945312 39.773438 C 212.953125 39.25 212.980469 38.730469 213.023438 38.210938 C 213.066406 37.691406 213.121094 37.171875 213.195312 36.65625 C 213.269531 36.140625 213.355469 35.628906 213.460938 35.117188 C 213.5625 34.605469 213.679688 34.097656 213.8125 33.59375 C 213.945312 33.089844 214.09375 32.589844 214.257812 32.097656 C 214.421875 31.601562 214.597656 31.109375 214.792969 30.625 C 214.984375 30.140625 215.191406 29.664062 215.410156 29.191406 C 215.628906 28.71875 215.867188 28.253906 216.113281 27.796875 C 216.363281 27.335938 216.625 26.886719 216.898438 26.445312 C 217.171875 26 217.460938 25.566406 217.761719 25.140625 C 218.0625 24.714844 218.375 24.300781 218.703125 23.890625 C 219.027344 23.484375 219.363281 23.085938 219.714844 22.699219 C 220.0625 22.3125 220.421875 21.9375 220.796875 21.570312 C 221.167969 21.207031 221.546875 20.851562 221.941406 20.507812 C 222.332031 20.167969 222.734375 19.835938 223.148438 19.515625 C 223.5625 19.199219 223.980469 18.890625 224.414062 18.597656 C 224.097656 19.582031 223.839844 20.578125 223.640625 21.59375 C 223.445312 22.605469 223.304688 23.628906 223.226562 24.65625 C 223.148438 25.6875 223.132812 26.71875 223.175781 27.75 C 223.21875 28.78125 223.324219 29.804688 223.488281 30.824219 C 223.652344 31.84375 223.875 32.851562 224.160156 33.84375 C 224.441406 34.835938 224.78125 35.8125 225.179688 36.765625 C 225.574219 37.71875 226.027344 38.644531 226.53125 39.542969 C 227.039062 40.445312 227.597656 41.3125 228.203125 42.144531 C 228.8125 42.980469 229.46875 43.777344 230.167969 44.535156 C 230.871094 45.289062 231.617188 46.003906 232.402344 46.675781 C 233.1875 47.34375 234.011719 47.964844 234.867188 48.539062 C 235.726562 49.109375 236.617188 49.632812 237.539062 50.101562 C 238.457031 50.566406 239.402344 50.980469 240.371094 51.339844 C 241.339844 51.695312 242.328125 51.992188 243.332031 52.234375 C 244.335938 52.476562 245.351562 52.65625 246.375 52.777344 C 247.402344 52.902344 248.429688 52.960938 249.460938 52.960938 Z M 249.460938 52.960938 " fill-opacity="1" fill-rule="nonzero"/><g clip-path="url(#f3a81fded0)"><path fill="#ffd270" d="M 254.375 180.472656 L 250.785156 165.960938 L 246.714844 180.859375 C 246.410156 181.960938 245.992188 183.015625 245.453125 184.023438 C 244.910156 185.027344 244.265625 185.960938 243.515625 186.824219 C 242.761719 187.683594 241.921875 188.449219 241 189.121094 C 240.074219 189.789062 239.085938 190.347656 238.035156 190.796875 L 230.640625 193.933594 L 238.035156 197.070312 C 239.085938 197.515625 240.074219 198.074219 241 198.746094 C 241.921875 199.417969 242.761719 200.183594 243.515625 201.042969 C 244.265625 201.902344 244.910156 202.835938 245.453125 203.84375 C 245.992188 204.851562 246.410156 205.90625 246.714844 207.007812 L 250.785156 221.910156 L 254.335938 207.210938 C 254.625 206.003906 255.058594 204.851562 255.632812 203.753906 C 256.207031 202.652344 256.90625 201.640625 257.730469 200.714844 C 258.554688 199.785156 259.480469 198.972656 260.503906 198.273438 C 261.527344 197.574219 262.621094 197.007812 263.785156 196.578125 L 270.925781 193.933594 L 263.339844 190.835938 C 262.238281 190.386719 261.203125 189.816406 260.238281 189.121094 C 259.269531 188.425781 258.398438 187.628906 257.617188 186.730469 C 256.839844 185.828125 256.175781 184.851562 255.628906 183.792969 C 255.082031 182.734375 254.664062 181.628906 254.375 180.472656 Z M 254.375 180.472656 " fill-opacity="1" fill-rule="nonzero"/></g><path fill="#ffd270" d="M 156.078125 40.796875 L 152.484375 26.285156 L 148.414062 41.179688 C 148.113281 42.285156 147.691406 43.335938 147.152344 44.34375 C 146.613281 45.351562 145.964844 46.285156 145.214844 47.144531 C 144.464844 48.007812 143.625 48.773438 142.699219 49.441406 C 141.773438 50.113281 140.785156 50.671875 139.734375 51.117188 L 132.34375 54.257812 L 139.734375 57.394531 C 140.785156 57.839844 141.773438 58.398438 142.699219 59.070312 C 143.625 59.738281 144.464844 60.503906 145.214844 61.367188 C 145.964844 62.226562 146.613281 63.160156 147.152344 64.167969 C 147.691406 65.171875 148.113281 66.226562 148.414062 67.332031 L 152.484375 82.234375 L 156.035156 67.539062 C 156.324219 66.332031 156.757812 65.179688 157.332031 64.082031 C 157.90625 62.980469 158.605469 61.96875 159.429688 61.042969 C 160.253906 60.113281 161.179688 59.300781 162.203125 58.601562 C 163.226562 57.902344 164.320312 57.335938 165.484375 56.90625 L 172.625 54.261719 L 165.042969 51.164062 C 163.9375 50.714844 162.902344 50.140625 161.9375 49.449219 C 160.96875 48.753906 160.097656 47.953125 159.316406 47.054688 C 158.539062 46.152344 157.875 45.175781 157.328125 44.117188 C 156.78125 43.058594 156.363281 41.953125 156.078125 40.796875 Z M 156.078125 40.796875 " fill-opacity="1" fill-rule="nonzero"/><path fill="#ffd270" d="M 42.734375 188.917969 L 39.140625 174.402344 L 35.070312 189.304688 C 34.769531 190.40625 34.347656 191.460938 33.808594 192.46875 C 33.269531 193.476562 32.621094 194.410156 31.871094 195.269531 C 31.117188 196.128906 30.28125 196.894531 29.355469 197.566406 C 28.429688 198.238281 27.441406 198.796875 26.390625 199.242188 L 19 202.378906 L 26.390625 205.515625 C 27.441406 205.964844 28.429688 206.523438 29.355469 207.191406 C 30.28125 207.863281 31.117188 208.628906 31.871094 209.488281 C 32.621094 210.347656 33.269531 211.285156 33.808594 212.289062 C 34.347656 213.296875 34.769531 214.351562 35.070312 215.453125 L 39.140625 230.351562 L 42.691406 215.652344 C 42.980469 214.445312 43.414062 213.292969 43.988281 212.195312 C 44.5625 211.09375 45.261719 210.082031 46.085938 209.15625 C 46.910156 208.226562 47.835938 207.414062 48.859375 206.714844 C 49.882812 206.015625 50.976562 205.449219 52.140625 205.019531 L 59.28125 202.375 L 51.699219 199.277344 C 50.597656 198.828125 49.5625 198.257812 48.59375 197.5625 C 47.628906 196.867188 46.753906 196.070312 45.976562 195.171875 C 45.195312 194.269531 44.53125 193.292969 43.984375 192.234375 C 43.4375 191.179688 43.019531 190.070312 42.734375 188.917969 Z M 42.734375 188.917969 " fill-opacity="1" fill-rule="nonzero"/><path fill="#6774b7" d="M 11.238281 117.214844 C 16.414062 117.214844 23.558594 114.464844 32.605469 108.976562 C 45.070312 101.421875 59.695312 89.496094 73.789062 75.40625 C 87.882812 61.3125 99.804688 46.6875 107.363281 34.222656 C 115.835938 20.242188 117.78125 10.800781 113.140625 6.160156 C 108.21875 1.238281 97.957031 3.695312 82.636719 13.460938 C 82.285156 13.671875 81.984375 13.945312 81.738281 14.28125 C 81.496094 14.617188 81.324219 14.984375 81.230469 15.386719 C 81.136719 15.789062 81.121094 16.195312 81.191406 16.605469 C 81.261719 17.011719 81.40625 17.390625 81.628906 17.738281 C 81.851562 18.089844 82.132812 18.382812 82.476562 18.617188 C 82.816406 18.851562 83.1875 19.011719 83.59375 19.09375 C 84 19.179688 84.40625 19.179688 84.8125 19.097656 C 85.21875 19.019531 85.59375 18.863281 85.933594 18.628906 C 100.910156 9.082031 107.4375 9.140625 108.804688 10.496094 C 112.507812 14.199219 102.253906 38.265625 69.453125 71.066406 C 40.839844 99.679688 18.875 111.136719 11.273438 111.136719 C 10.378906 111.222656 9.582031 110.980469 8.882812 110.417969 C 7.652344 109.1875 7.441406 103.863281 14.476562 91.71875 C 14.683594 91.367188 14.808594 90.988281 14.863281 90.585938 C 14.917969 90.183594 14.890625 89.785156 14.789062 89.390625 C 14.683594 89 14.507812 88.640625 14.261719 88.316406 C 14.011719 87.996094 13.714844 87.730469 13.363281 87.527344 C 13.007812 87.324219 12.632812 87.195312 12.230469 87.140625 C 11.824219 87.085938 11.429688 87.113281 11.035156 87.21875 C 10.640625 87.320312 10.285156 87.5 9.960938 87.746094 C 9.636719 87.992188 9.375 88.292969 9.171875 88.644531 C 1.6875 101.558594 0.132812 110.34375 4.546875 114.753906 C 5.445312 115.605469 6.476562 116.246094 7.640625 116.671875 C 8.804688 117.097656 10.003906 117.277344 11.238281 117.214844 Z M 11.238281 117.214844 " fill-opacity="1" fill-rule="nonzero"/><path fill="#f2f5f9" d="M 163.316406 124.667969 L 138.335938 137.722656 C 138.097656 137.847656 137.875 138 137.671875 138.179688 C 137.46875 138.355469 137.285156 138.554688 137.128906 138.773438 C 136.972656 138.996094 136.839844 139.230469 136.738281 139.480469 C 136.636719 139.730469 136.566406 139.988281 136.523438 140.257812 C 136.484375 140.523438 136.472656 140.792969 136.496094 141.0625 C 136.515625 141.332031 136.570312 141.597656 136.652344 141.855469 C 136.734375 142.109375 136.847656 142.355469 136.988281 142.585938 C 137.128906 142.816406 137.296875 143.027344 137.488281 143.21875 C 137.746094 143.480469 138.035156 143.691406 138.359375 143.859375 C 138.683594 144.027344 139.027344 144.140625 139.390625 144.199219 C 139.75 144.257812 140.109375 144.257812 140.472656 144.199219 C 140.832031 144.144531 141.175781 144.035156 141.5 143.867188 L 166.589844 131.152344 C 166.957031 130.964844 167.28125 130.722656 167.5625 130.417969 C 167.84375 130.117188 168.0625 129.773438 168.21875 129.394531 C 168.378906 129.011719 168.464844 128.613281 168.480469 128.203125 C 168.496094 127.789062 168.441406 127.386719 168.3125 126.996094 L 168.199219 126.65625 C 168.121094 126.417969 168.019531 126.191406 167.894531 125.976562 C 167.765625 125.757812 167.617188 125.558594 167.445312 125.375 C 167.273438 125.191406 167.085938 125.027344 166.878906 124.886719 C 166.671875 124.742188 166.453125 124.625 166.21875 124.53125 C 165.988281 124.433594 165.746094 124.367188 165.5 124.324219 C 165.25 124.28125 165.003906 124.265625 164.75 124.277344 C 164.5 124.289062 164.253906 124.328125 164.011719 124.394531 C 163.769531 124.460938 163.539062 124.550781 163.316406 124.667969 Z M 163.316406 124.667969 " fill-opacity="1" fill-rule="nonzero"/><path fill="#f2f5f9" d="M 125.253906 146.804688 C 125.253906 147.246094 125.335938 147.667969 125.503906 148.074219 C 125.671875 148.480469 125.914062 148.839844 126.222656 149.148438 C 126.535156 149.460938 126.890625 149.699219 127.296875 149.867188 C 127.703125 150.035156 128.125 150.121094 128.566406 150.121094 C 129.003906 150.121094 129.429688 150.035156 129.835938 149.867188 C 130.242188 149.699219 130.597656 149.460938 130.910156 149.148438 C 131.21875 148.839844 131.460938 148.480469 131.628906 148.074219 C 131.796875 147.667969 131.878906 147.246094 131.878906 146.804688 C 131.878906 146.367188 131.796875 145.945312 131.628906 145.539062 C 131.460938 145.132812 131.21875 144.773438 130.910156 144.460938 C 130.597656 144.152344 130.242188 143.914062 129.835938 143.746094 C 129.429688 143.578125 129.003906 143.492188 128.566406 143.492188 C 128.125 143.492188 127.703125 143.578125 127.296875 143.746094 C 126.890625 143.914062 126.535156 144.152344 126.222656 144.460938 C 125.914062 144.773438 125.671875 145.132812 125.503906 145.539062 C 125.335938 145.945312 125.253906 146.367188 125.253906 146.804688 Z M 125.253906 146.804688 " fill-opacity="1" fill-rule="nonzero"/></g></g></g><g clip-path="url(#06d8aef046)"><g transform="matrix(1, 0, 0, 1, 0, 284)"><g clip-path="url(#107ec1c5e7)"><g clip-path="url(#0eb0cd4de4)"><path fill="#81b29a" d="M 0 0.0820312 L 375.035156 0.0820312 L 375.035156 91 L 0 91 Z M 0 0.0820312 " fill-opacity="1" fill-rule="nonzero"/></g></g></g></g><g fill="#f4f1de" fill-opacity="1"><g transform="translate(81.146483, 343.041335)"><g><path d="M 1.234375 -14.40625 C 1.234375 -16.132812 1.546875 -17.832031 2.171875 -19.5 C 2.804688 -21.164062 3.722656 -22.6875 4.921875 -24.0625 C 6.117188 -25.4375 7.582031 -26.53125 9.3125 -27.34375 C 11.050781 -28.15625 13.023438 -28.5625 15.234375 -28.5625 C 17.847656 -28.5625 20.109375 -27.988281 22.015625 -26.84375 C 23.921875 -25.695312 25.34375 -24.203125 26.28125 -22.359375 L 22.046875 -19.4375 C 21.554688 -20.507812 20.925781 -21.359375 20.15625 -21.984375 C 19.382812 -22.609375 18.554688 -23.046875 17.671875 -23.296875 C 16.796875 -23.554688 15.929688 -23.6875 15.078125 -23.6875 C 13.691406 -23.6875 12.484375 -23.40625 11.453125 -22.84375 C 10.429688 -22.28125 9.570312 -21.546875 8.875 -20.640625 C 8.1875 -19.734375 7.675781 -18.71875 7.34375 -17.59375 C 7.007812 -16.476562 6.84375 -15.359375 6.84375 -14.234375 C 6.84375 -12.984375 7.039062 -11.773438 7.4375 -10.609375 C 7.84375 -9.453125 8.410156 -8.425781 9.140625 -7.53125 C 9.867188 -6.644531 10.742188 -5.941406 11.765625 -5.421875 C 12.796875 -4.898438 13.925781 -4.640625 15.15625 -4.640625 C 16.039062 -4.640625 16.9375 -4.785156 17.84375 -5.078125 C 18.75 -5.367188 19.585938 -5.832031 20.359375 -6.46875 C 21.128906 -7.113281 21.726562 -7.941406 22.15625 -8.953125 L 26.6875 -6.359375 C 26.125 -4.941406 25.207031 -3.738281 23.9375 -2.75 C 22.675781 -1.769531 21.253906 -1.023438 19.671875 -0.515625 C 18.097656 -0.015625 16.539062 0.234375 15 0.234375 C 12.96875 0.234375 11.113281 -0.179688 9.4375 -1.015625 C 7.757812 -1.859375 6.3125 -2.976562 5.09375 -4.375 C 3.882812 -5.78125 2.9375 -7.351562 2.25 -9.09375 C 1.570312 -10.84375 1.234375 -12.613281 1.234375 -14.40625 Z M 1.234375 -14.40625 "/></g></g></g><g fill="#f4f1de" fill-opacity="1"><g transform="translate(108.58376, 343.041335)"><g><path d="M 15 0.203125 C 12.726562 0.203125 10.800781 -0.175781 9.21875 -0.9375 C 7.632812 -1.695312 6.351562 -2.742188 5.375 -4.078125 C 4.40625 -5.410156 3.691406 -6.921875 3.234375 -8.609375 C 2.785156 -10.304688 2.5625 -12.078125 2.5625 -13.921875 L 2.5625 -28.40625 L 8.078125 -28.40625 L 8.078125 -13.921875 C 8.078125 -12.742188 8.191406 -11.601562 8.421875 -10.5 C 8.648438 -9.394531 9.03125 -8.398438 9.5625 -7.515625 C 10.09375 -6.640625 10.796875 -5.945312 11.671875 -5.4375 C 12.554688 -4.9375 13.648438 -4.6875 14.953125 -4.6875 C 16.285156 -4.6875 17.398438 -4.941406 18.296875 -5.453125 C 19.191406 -5.972656 19.898438 -6.671875 20.421875 -7.546875 C 20.941406 -8.429688 21.320312 -9.425781 21.5625 -10.53125 C 21.800781 -11.644531 21.921875 -12.773438 21.921875 -13.921875 L 21.921875 -28.40625 L 27.40625 -28.40625 L 27.40625 -13.921875 C 27.40625 -11.972656 27.171875 -10.144531 26.703125 -8.4375 C 26.234375 -6.726562 25.5 -5.226562 24.5 -3.9375 C 23.5 -2.644531 22.210938 -1.628906 20.640625 -0.890625 C 19.066406 -0.160156 17.1875 0.203125 15 0.203125 Z M 15 0.203125 "/></g></g></g><g fill="#f4f1de" fill-opacity="1"><g transform="translate(138.580783, 343.041335)"><g><path d="M 2.953125 0 L 2.953125 -28.40625 L 15.515625 -28.40625 C 16.828125 -28.40625 18.035156 -28.132812 19.140625 -27.59375 C 20.242188 -27.0625 21.203125 -26.34375 22.015625 -25.4375 C 22.828125 -24.53125 23.453125 -23.515625 23.890625 -22.390625 C 24.335938 -21.273438 24.5625 -20.128906 24.5625 -18.953125 C 24.5625 -17.753906 24.351562 -16.601562 23.9375 -15.5 C 23.519531 -14.394531 22.925781 -13.425781 22.15625 -12.59375 C 21.382812 -11.769531 20.476562 -11.132812 19.4375 -10.6875 L 25.921875 0 L 19.84375 0 L 14 -9.515625 L 8.484375 -9.515625 L 8.484375 0 Z M 8.484375 -14.359375 L 15.40625 -14.359375 C 16.09375 -14.359375 16.703125 -14.5625 17.234375 -14.96875 C 17.773438 -15.382812 18.203125 -15.941406 18.515625 -16.640625 C 18.835938 -17.335938 19 -18.109375 19 -18.953125 C 19 -19.859375 18.8125 -20.648438 18.4375 -21.328125 C 18.0625 -22.015625 17.585938 -22.554688 17.015625 -22.953125 C 16.441406 -23.359375 15.820312 -23.5625 15.15625 -23.5625 L 8.484375 -23.5625 Z M 8.484375 -14.359375 "/></g></g></g><g fill="#f4f1de" fill-opacity="1"><g transform="translate(165.178143, 343.041335)"><g><path d="M 2.953125 0 L 2.953125 -28.40625 L 8.484375 -28.40625 L 8.484375 0 Z M 2.953125 0 "/></g></g></g><g fill="#f4f1de" fill-opacity="1"><g transform="translate(176.617005, 343.041335)"><g><path d="M 15.078125 0.203125 C 12.992188 0.203125 11.101562 -0.195312 9.40625 -1 C 7.71875 -1.800781 6.265625 -2.882812 5.046875 -4.25 C 3.835938 -5.625 2.898438 -7.171875 2.234375 -8.890625 C 1.566406 -10.617188 1.234375 -12.390625 1.234375 -14.203125 C 1.234375 -16.097656 1.585938 -17.90625 2.296875 -19.625 C 3.003906 -21.34375 3.976562 -22.875 5.21875 -24.21875 C 6.457031 -25.5625 7.921875 -26.625 9.609375 -27.40625 C 11.304688 -28.195312 13.171875 -28.59375 15.203125 -28.59375 C 17.253906 -28.59375 19.125 -28.179688 20.8125 -27.359375 C 22.507812 -26.535156 23.957031 -25.425781 25.15625 -24.03125 C 26.351562 -22.644531 27.285156 -21.097656 27.953125 -19.390625 C 28.617188 -17.691406 28.953125 -15.9375 28.953125 -14.125 C 28.953125 -12.25 28.601562 -10.453125 27.90625 -8.734375 C 27.21875 -7.015625 26.253906 -5.484375 25.015625 -4.140625 C 23.773438 -2.796875 22.304688 -1.734375 20.609375 -0.953125 C 18.921875 -0.179688 17.078125 0.203125 15.078125 0.203125 Z M 6.84375 -14.203125 C 6.84375 -12.972656 7.023438 -11.785156 7.390625 -10.640625 C 7.765625 -9.492188 8.304688 -8.472656 9.015625 -7.578125 C 9.722656 -6.679688 10.585938 -5.972656 11.609375 -5.453125 C 12.640625 -4.941406 13.8125 -4.6875 15.125 -4.6875 C 16.457031 -4.6875 17.640625 -4.957031 18.671875 -5.5 C 19.710938 -6.039062 20.578125 -6.769531 21.265625 -7.6875 C 21.960938 -8.613281 22.492188 -9.644531 22.859375 -10.78125 C 23.222656 -11.914062 23.40625 -13.054688 23.40625 -14.203125 C 23.40625 -15.429688 23.207031 -16.609375 22.8125 -17.734375 C 22.425781 -18.867188 21.878906 -19.882812 21.171875 -20.78125 C 20.472656 -21.675781 19.609375 -22.382812 18.578125 -22.90625 C 17.554688 -23.425781 16.40625 -23.6875 15.125 -23.6875 C 13.757812 -23.6875 12.5625 -23.410156 11.53125 -22.859375 C 10.507812 -22.316406 9.648438 -21.585938 8.953125 -20.671875 C 8.265625 -19.765625 7.738281 -18.75 7.375 -17.625 C 7.019531 -16.507812 6.84375 -15.367188 6.84375 -14.203125 Z M 6.84375 -14.203125 "/></g></g></g><g fill="#f4f1de" fill-opacity="1"><g transform="translate(206.734007, 343.041335)"><g><path d="M 19.875 -20.953125 C 19.6875 -21.140625 19.347656 -21.394531 18.859375 -21.71875 C 18.367188 -22.039062 17.769531 -22.347656 17.0625 -22.640625 C 16.351562 -22.929688 15.582031 -23.191406 14.75 -23.421875 C 13.925781 -23.648438 13.085938 -23.765625 12.234375 -23.765625 C 10.742188 -23.765625 9.617188 -23.484375 8.859375 -22.921875 C 8.097656 -22.359375 7.71875 -21.570312 7.71875 -20.5625 C 7.71875 -19.789062 7.957031 -19.175781 8.4375 -18.71875 C 8.914062 -18.269531 9.632812 -17.882812 10.59375 -17.5625 C 11.5625 -17.238281 12.765625 -16.890625 14.203125 -16.515625 C 16.066406 -16.066406 17.6875 -15.515625 19.0625 -14.859375 C 20.4375 -14.203125 21.488281 -13.347656 22.21875 -12.296875 C 22.945312 -11.242188 23.3125 -9.851562 23.3125 -8.125 C 23.3125 -6.601562 23.03125 -5.300781 22.46875 -4.21875 C 21.914062 -3.132812 21.144531 -2.257812 20.15625 -1.59375 C 19.175781 -0.925781 18.054688 -0.441406 16.796875 -0.140625 C 15.546875 0.160156 14.210938 0.3125 12.796875 0.3125 C 11.390625 0.3125 9.976562 0.164062 8.5625 -0.125 C 7.144531 -0.414062 5.78125 -0.832031 4.46875 -1.375 C 3.164062 -1.925781 1.96875 -2.585938 0.875 -3.359375 L 3.3125 -8.125 C 3.5625 -7.882812 3.988281 -7.566406 4.59375 -7.171875 C 5.207031 -6.785156 5.953125 -6.398438 6.828125 -6.015625 C 7.710938 -5.628906 8.675781 -5.300781 9.71875 -5.03125 C 10.757812 -4.769531 11.8125 -4.640625 12.875 -4.640625 C 14.375 -4.640625 15.507812 -4.890625 16.28125 -5.390625 C 17.050781 -5.898438 17.4375 -6.625 17.4375 -7.5625 C 17.4375 -8.414062 17.128906 -9.082031 16.515625 -9.5625 C 15.898438 -10.039062 15.046875 -10.457031 13.953125 -10.8125 C 12.859375 -11.175781 11.566406 -11.570312 10.078125 -12 C 8.296875 -12.507812 6.800781 -13.078125 5.59375 -13.703125 C 4.394531 -14.328125 3.503906 -15.117188 2.921875 -16.078125 C 2.335938 -17.035156 2.046875 -18.238281 2.046875 -19.6875 C 2.046875 -21.625 2.503906 -23.253906 3.421875 -24.578125 C 4.335938 -25.898438 5.582031 -26.898438 7.15625 -27.578125 C 8.726562 -28.253906 10.476562 -28.59375 12.40625 -28.59375 C 13.738281 -28.59375 14.992188 -28.445312 16.171875 -28.15625 C 17.359375 -27.863281 18.472656 -27.476562 19.515625 -27 C 20.554688 -26.519531 21.488281 -26 22.3125 -25.4375 Z M 19.875 -20.953125 "/></g></g></g><g fill="#f4f1de" fill-opacity="1"><g transform="translate(231.251576, 343.041335)"><g><path d="M 2.953125 0 L 2.953125 -28.40625 L 8.484375 -28.40625 L 8.484375 0 Z M 2.953125 0 "/></g></g></g><g fill="#f4f1de" fill-opacity="1"><g transform="translate(242.690437, 343.041335)"><g><path d="M 24.203125 -23.5625 L 15.125 -23.5625 L 15.125 0 L 9.640625 0 L 9.640625 -23.5625 L 0.5625 -23.5625 L 0.5625 -28.40625 L 24.203125 -28.40625 Z M 24.203125 -23.5625 "/></g></g></g><g fill="#f4f1de" fill-opacity="1"><g transform="translate(267.447977, 343.041335)"><g><path d="M 6.15625 -28.40625 L 13.15625 -15.046875 L 20.28125 -28.40625 L 26.234375 -28.40625 L 15.921875 -9.921875 L 15.921875 0 L 10.4375 0 L 10.4375 -10 L 0.15625 -28.40625 Z M 6.15625 -28.40625 "/></g></g></g></svg>